<mxfile host="Electron" modified="2024-01-03T16:35:36.513Z" agent="Mozilla/5.0 (X11; Linux x86_64) AppleWebKit/537.36 (KHTML, like Gecko) draw.io/22.1.16 Chrome/120.0.6099.109 Electron/28.1.0 Safari/537.36" etag="7MiQyKDDTxWBcpmdVloO" version="22.1.16" type="device">
  <diagram id="C5RBs43oDa-KdzZeNtuy" name="Page-1">
    <mxGraphModel dx="1372" dy="838" grid="1" gridSize="10" guides="1" tooltips="1" connect="1" arrows="1" fold="1" page="1" pageScale="1" pageWidth="827" pageHeight="1169" math="0" shadow="0">
      <root>
        <mxCell id="WIyWlLk6GJQsqaUBKTNV-0" />
        <mxCell id="WIyWlLk6GJQsqaUBKTNV-1" parent="WIyWlLk6GJQsqaUBKTNV-0" />
        <mxCell id="UWxM5BPRJe8VWYQIVK1E-1" value="" style="edgeStyle=orthogonalEdgeStyle;rounded=0;orthogonalLoop=1;jettySize=auto;html=1;" edge="1" parent="WIyWlLk6GJQsqaUBKTNV-1" source="csGpvOBCSzxYZ-202DzS-3" target="tPOZjpnS3oHCq0hTczvs-1">
          <mxGeometry relative="1" as="geometry" />
        </mxCell>
        <mxCell id="csGpvOBCSzxYZ-202DzS-3" value="user authorizes our app and gets redirected to the callback endpoint" style="rounded=1;whiteSpace=wrap;html=1;" parent="WIyWlLk6GJQsqaUBKTNV-1" vertex="1">
          <mxGeometry x="240" y="50" width="120" height="60" as="geometry" />
        </mxCell>
        <mxCell id="UWxM5BPRJe8VWYQIVK1E-0" value="" style="edgeStyle=orthogonalEdgeStyle;rounded=0;orthogonalLoop=1;jettySize=auto;html=1;" edge="1" parent="WIyWlLk6GJQsqaUBKTNV-1" source="tPOZjpnS3oHCq0hTczvs-0" target="csGpvOBCSzxYZ-202DzS-3">
          <mxGeometry relative="1" as="geometry" />
        </mxCell>
        <mxCell id="tPOZjpnS3oHCq0hTczvs-0" value="&lt;span style=&quot;color: rgb(240, 240, 240); font-family: Helvetica; font-size: 12px; font-style: normal; font-variant-ligatures: normal; font-variant-caps: normal; font-weight: 400; letter-spacing: normal; orphans: 2; text-align: center; text-indent: 0px; text-transform: none; widows: 2; word-spacing: 0px; -webkit-text-stroke-width: 0px; background-color: rgb(27, 29, 30); text-decoration-thickness: initial; text-decoration-style: initial; text-decoration-color: initial; float: none; display: inline !important;&quot;&gt;user clicks an&lt;br&gt;oauth2 button&lt;/span&gt;" style="rounded=1;whiteSpace=wrap;html=1;" parent="WIyWlLk6GJQsqaUBKTNV-1" vertex="1">
          <mxGeometry x="40" y="50" width="120" height="60" as="geometry" />
        </mxCell>
        <mxCell id="UWxM5BPRJe8VWYQIVK1E-2" style="edgeStyle=orthogonalEdgeStyle;rounded=0;orthogonalLoop=1;jettySize=auto;html=1;entryX=0.5;entryY=0;entryDx=0;entryDy=0;" edge="1" parent="WIyWlLk6GJQsqaUBKTNV-1" source="tPOZjpnS3oHCq0hTczvs-1" target="tPOZjpnS3oHCq0hTczvs-2">
          <mxGeometry relative="1" as="geometry" />
        </mxCell>
        <mxCell id="tPOZjpnS3oHCq0hTczvs-1" value="server returns oauth2 provider&#39;s tokens" style="rounded=0;whiteSpace=wrap;html=1;" parent="WIyWlLk6GJQsqaUBKTNV-1" vertex="1">
          <mxGeometry x="440" y="50" width="120" height="60" as="geometry" />
        </mxCell>
        <mxCell id="UWxM5BPRJe8VWYQIVK1E-3" style="edgeStyle=orthogonalEdgeStyle;rounded=0;orthogonalLoop=1;jettySize=auto;html=1;entryX=1;entryY=0.5;entryDx=0;entryDy=0;" edge="1" parent="WIyWlLk6GJQsqaUBKTNV-1" source="tPOZjpnS3oHCq0hTczvs-2" target="-hRdgUlOHfQQu58m_tc0-0">
          <mxGeometry relative="1" as="geometry" />
        </mxCell>
        <mxCell id="UWxM5BPRJe8VWYQIVK1E-16" value="" style="edgeStyle=orthogonalEdgeStyle;rounded=0;orthogonalLoop=1;jettySize=auto;html=1;" edge="1" parent="WIyWlLk6GJQsqaUBKTNV-1" source="tPOZjpnS3oHCq0hTczvs-2" target="UWxM5BPRJe8VWYQIVK1E-15">
          <mxGeometry relative="1" as="geometry" />
        </mxCell>
        <mxCell id="tPOZjpnS3oHCq0hTczvs-2" value="what type of button&lt;br&gt;did the user click?" style="rhombus;whiteSpace=wrap;html=1;" parent="WIyWlLk6GJQsqaUBKTNV-1" vertex="1">
          <mxGeometry x="600" y="140" width="160" height="120" as="geometry" />
        </mxCell>
        <mxCell id="UWxM5BPRJe8VWYQIVK1E-7" value="" style="edgeStyle=orthogonalEdgeStyle;rounded=0;orthogonalLoop=1;jettySize=auto;html=1;" edge="1" parent="WIyWlLk6GJQsqaUBKTNV-1" source="-hRdgUlOHfQQu58m_tc0-0" target="UWxM5BPRJe8VWYQIVK1E-6">
          <mxGeometry relative="1" as="geometry" />
        </mxCell>
        <mxCell id="-hRdgUlOHfQQu58m_tc0-0" value="&lt;span style=&quot;color: rgb(240, 240, 240); font-family: Helvetica; font-size: 12px; font-style: normal; font-variant-ligatures: normal; font-variant-caps: normal; font-weight: 400; letter-spacing: normal; orphans: 2; text-align: center; text-indent: 0px; text-transform: none; widows: 2; word-spacing: 0px; -webkit-text-stroke-width: 0px; background-color: rgb(27, 29, 30); text-decoration-thickness: initial; text-decoration-style: initial; text-decoration-color: initial; float: none; display: inline !important;&quot;&gt;server retrieves user&#39;s information&lt;br&gt;(username and email)&lt;br&gt;from resource server using the oauth2 provider&#39;s tokens&lt;/span&gt;" style="rounded=0;whiteSpace=wrap;html=1;" parent="WIyWlLk6GJQsqaUBKTNV-1" vertex="1">
          <mxGeometry x="270" y="155" width="160" height="90" as="geometry" />
        </mxCell>
        <mxCell id="UWxM5BPRJe8VWYQIVK1E-4" value="type: login" style="text;html=1;align=center;verticalAlign=middle;resizable=0;points=[];autosize=1;strokeColor=none;fillColor=none;" vertex="1" parent="WIyWlLk6GJQsqaUBKTNV-1">
          <mxGeometry x="480" y="170" width="80" height="30" as="geometry" />
        </mxCell>
        <mxCell id="UWxM5BPRJe8VWYQIVK1E-9" value="" style="edgeStyle=orthogonalEdgeStyle;rounded=0;orthogonalLoop=1;jettySize=auto;html=1;" edge="1" parent="WIyWlLk6GJQsqaUBKTNV-1" source="UWxM5BPRJe8VWYQIVK1E-6" target="UWxM5BPRJe8VWYQIVK1E-8">
          <mxGeometry relative="1" as="geometry" />
        </mxCell>
        <mxCell id="UWxM5BPRJe8VWYQIVK1E-6" value="server searches user&#39;s username in the user_&amp;lt;provider&amp;gt; table" style="rounded=0;whiteSpace=wrap;html=1;" vertex="1" parent="WIyWlLk6GJQsqaUBKTNV-1">
          <mxGeometry x="50" y="165" width="120" height="70" as="geometry" />
        </mxCell>
        <mxCell id="UWxM5BPRJe8VWYQIVK1E-11" value="" style="edgeStyle=orthogonalEdgeStyle;rounded=0;orthogonalLoop=1;jettySize=auto;html=1;" edge="1" parent="WIyWlLk6GJQsqaUBKTNV-1" source="UWxM5BPRJe8VWYQIVK1E-8" target="UWxM5BPRJe8VWYQIVK1E-10">
          <mxGeometry relative="1" as="geometry" />
        </mxCell>
        <mxCell id="UWxM5BPRJe8VWYQIVK1E-14" value="" style="edgeStyle=orthogonalEdgeStyle;rounded=0;orthogonalLoop=1;jettySize=auto;html=1;" edge="1" parent="WIyWlLk6GJQsqaUBKTNV-1" source="UWxM5BPRJe8VWYQIVK1E-8" target="UWxM5BPRJe8VWYQIVK1E-13">
          <mxGeometry relative="1" as="geometry" />
        </mxCell>
        <mxCell id="UWxM5BPRJe8VWYQIVK1E-8" value="user is&lt;br&gt;found?" style="rhombus;whiteSpace=wrap;html=1;" vertex="1" parent="WIyWlLk6GJQsqaUBKTNV-1">
          <mxGeometry x="70" y="290" width="80" height="80" as="geometry" />
        </mxCell>
        <mxCell id="UWxM5BPRJe8VWYQIVK1E-10" value="server returns&lt;br&gt;404 (not found)" style="rounded=0;whiteSpace=wrap;html=1;" vertex="1" parent="WIyWlLk6GJQsqaUBKTNV-1">
          <mxGeometry x="240" y="305" width="90" height="50" as="geometry" />
        </mxCell>
        <mxCell id="UWxM5BPRJe8VWYQIVK1E-12" value="no" style="text;html=1;align=center;verticalAlign=middle;resizable=0;points=[];autosize=1;strokeColor=none;fillColor=none;" vertex="1" parent="WIyWlLk6GJQsqaUBKTNV-1">
          <mxGeometry x="170" y="300" width="40" height="30" as="geometry" />
        </mxCell>
        <mxCell id="UWxM5BPRJe8VWYQIVK1E-13" value="server returns&lt;br&gt;our tokens" style="rounded=0;whiteSpace=wrap;html=1;" vertex="1" parent="WIyWlLk6GJQsqaUBKTNV-1">
          <mxGeometry x="65" y="430" width="90" height="50" as="geometry" />
        </mxCell>
        <mxCell id="UWxM5BPRJe8VWYQIVK1E-19" value="" style="edgeStyle=orthogonalEdgeStyle;rounded=0;orthogonalLoop=1;jettySize=auto;html=1;" edge="1" parent="WIyWlLk6GJQsqaUBKTNV-1" source="UWxM5BPRJe8VWYQIVK1E-15" target="UWxM5BPRJe8VWYQIVK1E-18">
          <mxGeometry relative="1" as="geometry" />
        </mxCell>
        <mxCell id="UWxM5BPRJe8VWYQIVK1E-15" value="&lt;span style=&quot;color: rgb(240, 240, 240); font-family: Helvetica; font-size: 12px; font-style: normal; font-variant-ligatures: normal; font-variant-caps: normal; font-weight: 400; letter-spacing: normal; orphans: 2; text-align: center; text-indent: 0px; text-transform: none; widows: 2; word-spacing: 0px; -webkit-text-stroke-width: 0px; background-color: rgb(27, 29, 30); text-decoration-thickness: initial; text-decoration-style: initial; text-decoration-color: initial; float: none; display: inline !important;&quot;&gt;server retrieves user&#39;s information&lt;br&gt;(username and email)&lt;br&gt;from resource server using the oauth2 provider&#39;s tokens&lt;/span&gt;" style="rounded=0;whiteSpace=wrap;html=1;" vertex="1" parent="WIyWlLk6GJQsqaUBKTNV-1">
          <mxGeometry x="600" y="330" width="160" height="90" as="geometry" />
        </mxCell>
        <mxCell id="UWxM5BPRJe8VWYQIVK1E-17" value="type: link" style="text;html=1;align=center;verticalAlign=middle;resizable=0;points=[];autosize=1;strokeColor=none;fillColor=none;" vertex="1" parent="WIyWlLk6GJQsqaUBKTNV-1">
          <mxGeometry x="680" y="277" width="70" height="30" as="geometry" />
        </mxCell>
        <mxCell id="UWxM5BPRJe8VWYQIVK1E-21" value="" style="edgeStyle=orthogonalEdgeStyle;rounded=0;orthogonalLoop=1;jettySize=auto;html=1;" edge="1" parent="WIyWlLk6GJQsqaUBKTNV-1" source="UWxM5BPRJe8VWYQIVK1E-18" target="UWxM5BPRJe8VWYQIVK1E-20">
          <mxGeometry relative="1" as="geometry" />
        </mxCell>
        <mxCell id="UWxM5BPRJe8VWYQIVK1E-18" value="server searches user&#39;s username in the user_&amp;lt;provider&amp;gt; table" style="rounded=0;whiteSpace=wrap;html=1;" vertex="1" parent="WIyWlLk6GJQsqaUBKTNV-1">
          <mxGeometry x="390" y="340" width="120" height="70" as="geometry" />
        </mxCell>
        <mxCell id="UWxM5BPRJe8VWYQIVK1E-23" value="" style="edgeStyle=orthogonalEdgeStyle;rounded=0;orthogonalLoop=1;jettySize=auto;html=1;" edge="1" parent="WIyWlLk6GJQsqaUBKTNV-1" source="UWxM5BPRJe8VWYQIVK1E-20" target="UWxM5BPRJe8VWYQIVK1E-22">
          <mxGeometry relative="1" as="geometry" />
        </mxCell>
        <mxCell id="UWxM5BPRJe8VWYQIVK1E-27" value="" style="edgeStyle=orthogonalEdgeStyle;rounded=0;orthogonalLoop=1;jettySize=auto;html=1;" edge="1" parent="WIyWlLk6GJQsqaUBKTNV-1" source="UWxM5BPRJe8VWYQIVK1E-20" target="UWxM5BPRJe8VWYQIVK1E-26">
          <mxGeometry relative="1" as="geometry" />
        </mxCell>
        <mxCell id="UWxM5BPRJe8VWYQIVK1E-20" value="user is&lt;br&gt;found?" style="rhombus;whiteSpace=wrap;html=1;" vertex="1" parent="WIyWlLk6GJQsqaUBKTNV-1">
          <mxGeometry x="410" y="480" width="80" height="80" as="geometry" />
        </mxCell>
        <mxCell id="UWxM5BPRJe8VWYQIVK1E-22" value="server returns&lt;br&gt;409 (conflict)" style="rounded=0;whiteSpace=wrap;html=1;" vertex="1" parent="WIyWlLk6GJQsqaUBKTNV-1">
          <mxGeometry x="560" y="495" width="90" height="50" as="geometry" />
        </mxCell>
        <mxCell id="UWxM5BPRJe8VWYQIVK1E-24" value="yes" style="text;html=1;align=center;verticalAlign=middle;resizable=0;points=[];autosize=1;strokeColor=none;fillColor=none;" vertex="1" parent="WIyWlLk6GJQsqaUBKTNV-1">
          <mxGeometry x="110" y="380" width="40" height="30" as="geometry" />
        </mxCell>
        <mxCell id="UWxM5BPRJe8VWYQIVK1E-25" value="yes" style="text;html=1;align=center;verticalAlign=middle;resizable=0;points=[];autosize=1;strokeColor=none;fillColor=none;" vertex="1" parent="WIyWlLk6GJQsqaUBKTNV-1">
          <mxGeometry x="500" y="490" width="40" height="30" as="geometry" />
        </mxCell>
        <mxCell id="UWxM5BPRJe8VWYQIVK1E-32" value="" style="edgeStyle=orthogonalEdgeStyle;rounded=0;orthogonalLoop=1;jettySize=auto;html=1;" edge="1" parent="WIyWlLk6GJQsqaUBKTNV-1" source="UWxM5BPRJe8VWYQIVK1E-26" target="UWxM5BPRJe8VWYQIVK1E-31">
          <mxGeometry relative="1" as="geometry" />
        </mxCell>
        <mxCell id="UWxM5BPRJe8VWYQIVK1E-26" value="server adds an entry to the user_&amp;lt;provider&amp;gt; table filled with the user&#39;s information" style="rounded=0;whiteSpace=wrap;html=1;" vertex="1" parent="WIyWlLk6GJQsqaUBKTNV-1">
          <mxGeometry x="190" y="485" width="150" height="70" as="geometry" />
        </mxCell>
        <mxCell id="UWxM5BPRJe8VWYQIVK1E-28" value="no" style="text;html=1;align=center;verticalAlign=middle;resizable=0;points=[];autosize=1;strokeColor=none;fillColor=none;" vertex="1" parent="WIyWlLk6GJQsqaUBKTNV-1">
          <mxGeometry x="360" y="490" width="40" height="30" as="geometry" />
        </mxCell>
        <mxCell id="UWxM5BPRJe8VWYQIVK1E-33" value="performed&lt;br&gt;client side" style="text;html=1;align=center;verticalAlign=middle;resizable=0;points=[];autosize=1;strokeColor=default;fillColor=none;rounded=1;arcSize=50;shadow=0;glass=0;opacity=50;" vertex="1" parent="WIyWlLk6GJQsqaUBKTNV-1">
          <mxGeometry x="708" y="133" width="80" height="40" as="geometry" />
        </mxCell>
        <mxCell id="UWxM5BPRJe8VWYQIVK1E-31" value="server returns&lt;br&gt;200 (ok)" style="rounded=0;whiteSpace=wrap;html=1;" vertex="1" parent="WIyWlLk6GJQsqaUBKTNV-1">
          <mxGeometry x="220" y="610" width="90" height="50" as="geometry" />
        </mxCell>
      </root>
    </mxGraphModel>
  </diagram>
</mxfile>
